<svg width="85" height="85" viewBox="0 0 85 85" fill="none" xmlns="http://www.w3.org/2000/svg">
<g clip-path="url(#clip0_16_2175)">
<rect width="85" height="84.0116" fill="white"/>
<path d="M77.2549 78.1306H15.3901C11.1183 78.1306 7.65479 74.708 7.65479 70.4852V38.3535L3.78711 35.0938V74.3079C3.78711 78.5308 7.25065 81.9533 11.5225 81.9533H73.3872C76.4277 81.9533 79.1865 80.192 80.4374 77.4534C79.4373 77.9006 78.3525 78.1313 77.2549 78.1306Z" fill="#D4E1F4"/>
<path d="M47.8066 31.7434L40.1513 37.9L37.2822 34.5791C36.9695 34.2102 36.4807 34.0363 36.0018 34.1221C35.5229 34.208 35.1278 34.5417 34.9669 34.9957C34.806 35.4496 34.9035 35.9536 35.223 36.3165L38.9509 40.6312C39.4283 41.1837 40.2646 41.2583 40.8342 40.7999L49.5153 33.819C49.8937 33.5189 50.0803 33.041 50.004 32.5669C49.9285 32.0928 49.6014 31.6956 49.1466 31.5254C48.6926 31.3551 48.1812 31.4388 47.8066 31.7434Z" fill="#1AE5BE"/>
<path d="M42.457 21.5539C34.2329 21.5539 27.5664 28.1429 27.5664 36.2713C27.5664 44.3998 34.2329 50.9888 42.457 50.9888C50.6811 50.9888 57.3475 44.3998 57.3475 36.2713C57.3687 32.362 55.8073 28.6058 53.01 25.841C50.2127 23.077 46.413 21.533 42.457 21.5539ZM42.457 48.3129C35.7286 48.3129 30.2738 42.9215 30.2738 36.2713C30.2738 29.6212 35.7286 24.2298 42.457 24.2298C49.1854 24.2298 54.6402 29.6212 54.6402 36.2713C54.6402 42.9215 49.1854 48.3129 42.457 48.3129Z" fill="#1AE5BE"/>
<path d="M50.0776 0.424084C50.0738 0.420351 50.07 0.418858 50.0662 0.415125C49.8117 0.149327 49.4574 -0.00074385 49.0872 2.77264e-06C49.0366 2.77264e-06 48.9852 0.00373587 48.9346 0.00970885L48.9112 0.00597575C48.8651 0.00224265 48.8206 2.77264e-06 48.776 2.77264e-06H25.3826C21.2505 0.00522914 17.9018 3.31501 17.8965 7.39903V43.6498L20.6039 45.9165V7.39903C20.6076 4.79182 22.7447 2.67963 25.3826 2.6759H47.7335V11.6593C47.7381 15.744 51.0868 19.0545 55.2196 19.0583H64.3087V45.9091L67.016 43.6401V17.686C67.016 17.3306 66.8725 16.9901 66.6179 16.7393L50.0776 0.424084ZM55.2196 16.3824C52.5817 16.3801 50.4432 14.2665 50.4409 11.6593V4.56261L62.4232 16.3824H55.2196Z" fill="#1AE5BE"/>
<path d="M81.785 32.352L67.0161 19.9932V23.4986L79.0391 33.5615L67.0161 43.6402L64.3087 45.9092L46.5951 60.758C44.2179 62.7612 40.7219 62.7627 38.3431 60.7617L20.6039 45.9166L17.8965 43.6499L5.87421 33.5884L17.8965 23.5098V19.9984L3.20687 32.3132C2.73097 32.5334 2.42654 33.006 2.42578 33.5249V75.0282C2.43107 79.988 6.49742 84.0063 11.5148 84.0116H73.3977C78.4151 84.0063 82.4815 79.988 82.4868 75.0282V33.5249C82.4875 33.0367 82.2178 32.5872 81.785 32.352ZM79.7794 75.0282C79.7809 76.0682 79.5203 77.0926 79.0217 78.008L60.5762 59.4604C60.052 58.9333 59.1946 58.9258 58.6613 59.4439C58.1272 59.9621 58.1204 60.8103 58.6446 61.3374L77.2541 80.0492C76.1466 80.8854 74.7915 81.3371 73.3977 81.3357H11.5148C10.1181 81.3371 8.75986 80.8832 7.65093 80.044L26.1576 61.3336C26.6554 60.8013 26.6343 59.9748 26.11 59.4686C25.5858 58.9624 24.7488 58.9601 24.2223 59.4641L5.88781 77.9983C5.39075 77.0859 5.13165 76.0652 5.13316 75.0282V36.4741L18.3898 47.5682L36.5928 62.803C39.9801 65.6543 44.9597 65.6521 48.3447 62.7993L66.5228 47.56L79.7794 36.4495V75.0282Z" fill="#0635C9"/>
</g>
<defs>
<clipPath id="clip0_16_2175">
<rect width="85" height="84.0116" fill="white"/>
</clipPath>
</defs>
</svg>
