<svg width="14" height="10" viewBox="0 0 14 10" fill="none" xmlns="http://www.w3.org/2000/svg">
<path d="M13.282 0.333008H0.717965C0.323066 0.333008 0 0.656074 0 1.05095V8.94839C0 9.34324 0.323066 9.66636 0.717965 9.66636H13.2821C13.6769 9.66636 14 9.34329 14 8.94839V1.05095C14 0.656074 13.6769 0.333008 13.282 0.333008ZM13.0126 0.871434L7.413 5.07149C7.31232 5.14811 7.15777 5.19604 6.99997 5.19533C6.8422 5.19604 6.68768 5.14811 6.58697 5.07149L0.987355 0.871434H13.0126ZM10.0215 5.34862L13.0728 9.11787C13.0758 9.12164 13.0796 9.12452 13.0828 9.12793H0.917164C0.920391 9.12435 0.924164 9.12164 0.927227 9.11787L3.97852 5.34862C4.072 5.23303 4.05429 5.06359 3.93848 4.96988C3.8229 4.87639 3.65345 4.89411 3.55994 5.00972L0.538453 8.74217V1.20798L6.26407 5.50221C6.47929 5.6625 6.74114 5.73304 6.99995 5.73375C7.2584 5.73321 7.52046 5.66266 7.73582 5.50221L13.4614 1.20798V8.74211L10.44 5.00972C10.3465 4.89414 10.1769 4.87636 10.0615 4.96988C9.94571 5.06337 9.92794 5.23303 10.0215 5.34862Z" fill="#E9E9E9"/>
</svg>
