<svg width="85" height="85" viewBox="0 0 85 85" fill="none" xmlns="http://www.w3.org/2000/svg">
<g clip-path="url(#clip0_15_2076)">
<path d="M83.7277 31.1055V75.8206C83.7277 78.1143 82.7511 80.1791 81.1928 81.6253C79.779 82.9359 77.8874 83.7374 75.8089 83.7374H9.17856C7.10013 83.7374 5.20847 82.9359 3.79669 81.6266C2.23835 80.1791 1.26172 78.1143 1.26172 75.8206V31.1055H83.7277Z" fill="#FEC970"/>
<path d="M42.8316 83.7377H9.17856C4.8064 83.7377 1.26172 80.193 1.26172 75.8208V30.8398L10.0553 38.4285L10.604 38.8844V61.4515C10.604 69.129 13.7018 76.4058 20.7652 79.418C27.2826 82.1975 38.8764 83.7377 42.8316 83.7377Z" fill="#FBA028"/>
<path d="M83.7271 31.1055L52.0292 4.71302C46.5047 0.112587 38.4835 0.112587 32.9589 4.71302L1.26172 31.1055L10.604 38.8842L32.9589 57.498C38.4841 62.0991 46.5053 62.0991 52.0286 57.498L74.3855 38.8842L83.7277 31.1055" fill="#FBA028"/>
<path d="M74.387 14.635V38.8848L52.0301 57.4986C46.5069 62.0997 38.4856 62.0997 32.9604 57.4986L10.6055 38.8848V14.635C10.6055 9.57928 14.7053 5.47949 19.7629 5.47949H65.2315C70.2885 5.47949 74.387 9.57928 74.387 14.635Z" fill="#BFDADD"/>
<path d="M74.387 14.635V33.3311L52.0301 51.9449C46.5069 56.546 38.4856 56.546 32.9604 51.9449L10.6055 33.3311V14.635C10.6055 9.57929 14.7053 5.47949 19.7629 5.47949H65.2315C70.2885 5.47949 74.387 9.57929 74.387 14.635Z" fill="#E4F5F7"/>
<path d="M76.0423 78.5991C76.4042 78.5991 76.7634 78.4448 77.0131 78.1445C77.4593 77.6088 77.3866 76.8131 76.851 76.367L56.7242 59.6098C56.1885 59.1636 55.3928 59.2362 54.9467 59.7719C54.5005 60.3075 54.5731 61.1039 55.1088 61.5501L75.2356 78.3073C75.4716 78.5038 75.7576 78.5991 76.0423 78.5991Z" fill="#42239A"/>
<path d="M28.2688 59.6098L8.142 76.367C7.60634 76.8131 7.53371 77.6088 7.97987 78.1445C8.2289 78.4448 8.58816 78.5991 8.95068 78.5991C9.23537 78.5991 9.52135 78.5038 9.75741 78.3073L29.8842 61.5494C30.4199 61.1039 30.4925 60.3075 30.0463 59.7719C29.6008 59.2362 28.8045 59.1636 28.2688 59.6098Z" fill="#42239A"/>
<path d="M84.9906 31.1066C84.9906 30.7318 84.8239 30.3764 84.536 30.1364L75.6484 22.7364V14.6354C75.6484 8.89105 70.9753 4.21798 65.2309 4.21798H53.4056L52.8375 3.74458C46.8454 -1.24689 38.1458 -1.24689 32.1518 3.74458L31.5837 4.21798H29.0319C28.3347 4.21798 27.7699 4.78282 27.7699 5.47996C27.7699 6.17709 28.3347 6.74258 29.0319 6.74258H65.2309C69.583 6.74258 73.1238 10.2834 73.1238 14.6354V23.3214V23.322V38.2939L51.2215 56.5296C46.1658 60.7416 38.8255 60.7409 33.7672 56.5289L11.8675 38.2939V23.3227C11.8675 23.322 11.8675 23.3214 11.8675 23.3214V14.6354C11.8675 10.2834 15.4089 6.74258 19.7623 6.74258H23.9827C24.6798 6.74258 25.2453 6.17709 25.2453 5.47996C25.2453 4.78282 24.6798 4.21798 23.9827 4.21798H19.7623C14.0172 4.21798 9.34288 8.89105 9.34288 14.6354V22.7364L0.455244 30.1371C0.169906 30.3744 0.00389098 30.7259 0.00129699 31.0969C0.00129699 31.1007 0 31.1033 0 31.1072V75.8217C0 80.8832 4.11795 85.0005 9.17946 85.0005H65.7205C66.4177 85.0005 66.9825 84.4357 66.9825 83.7385C66.9825 83.0414 66.4177 82.4766 65.7205 82.4766H9.17946C5.50962 82.4766 2.5246 79.4909 2.5246 75.8217V33.7998L9.80137 39.8593C9.80202 39.8593 9.80202 39.8593 9.80202 39.86L32.1518 58.4692C35.1498 60.9653 38.8216 62.213 42.4953 62.2123C46.1677 62.2123 49.8415 60.9646 52.8369 58.4692L75.1841 39.8632C75.1879 39.86 75.1912 39.8574 75.1944 39.8541L82.4654 33.8004V75.821C82.4654 79.4902 79.4803 82.4759 75.8105 82.4759H70.7697C70.0726 82.4759 69.5078 83.0407 69.5078 83.7379C69.5078 84.435 70.0726 85.0005 70.7697 85.0005H75.8105C80.872 85.0005 84.99 80.8826 84.99 75.821V31.117C84.99 31.1137 84.9906 31.1105 84.9906 31.1066ZM49.0717 4.21798H35.9189C40.0064 1.96446 44.9849 1.96446 49.0717 4.21798ZM9.34288 26.0217V36.1921L3.23535 31.1072L9.34288 26.0217ZM75.6484 36.1914V26.0217L81.7559 31.1066L75.6484 36.1914Z" fill="#42239A"/>
<path d="M61.0081 34.9668H23.9833C23.2862 34.9668 22.7207 35.5316 22.7207 36.2288C22.7207 36.9259 23.2862 37.4914 23.9833 37.4914H61.0081C61.7052 37.4914 62.2707 36.9259 62.2707 36.2288C62.2707 35.5316 61.7052 34.9668 61.0081 34.9668Z" fill="#42239A"/>
<path d="M61.0081 42.2979H23.9833C23.2862 42.2979 22.7207 42.8633 22.7207 43.5605C22.7207 44.2576 23.2862 44.8225 23.9833 44.8225H61.0081C61.7052 44.8225 62.2707 44.2576 62.2707 43.5605C62.2707 42.8633 61.7052 42.2979 61.0081 42.2979Z" fill="#42239A"/>
<path d="M61.0081 20.3047H23.9833C23.2862 20.3047 22.7207 20.8702 22.7207 21.5673C22.7207 22.2638 23.2862 22.8293 23.9833 22.8293H61.0081C61.7052 22.8293 62.2707 22.2638 62.2707 21.5673C62.2707 20.8702 61.7052 20.3047 61.0081 20.3047Z" fill="#42239A"/>
<path d="M61.0082 27.6367H51.7522C51.0551 27.6367 50.4902 28.2016 50.4902 28.8987C50.4902 29.5958 51.0551 30.1607 51.7522 30.1607H61.0082C61.7054 30.1607 62.2702 29.5958 62.2702 28.8987C62.2702 28.2016 61.7054 27.6367 61.0082 27.6367Z" fill="#42239A"/>
<path d="M23.9833 30.1607H47.5446C48.2417 30.1607 48.8066 29.5958 48.8066 28.8987C48.8066 28.2016 48.2417 27.6367 47.5446 27.6367H23.9833C23.2862 27.6367 22.7207 28.2016 22.7207 28.8987C22.7207 29.5958 23.2862 30.1607 23.9833 30.1607Z" fill="#42239A"/>
</g>
<defs>
<clipPath id="clip0_15_2076">
<rect width="85" height="85" fill="white"/>
</clipPath>
</defs>
</svg>
