<svg width="13" height="14" viewBox="0 0 13 14" fill="none" xmlns="http://www.w3.org/2000/svg">
<path d="M11.5781 9.89844C11.8802 9.89844 12.125 9.6536 12.125 9.35156V7.32812C12.125 6.12194 11.1437 5.14062 9.9375 5.14062H9.28024V3.21196C9.28024 1.44088 7.80827 0 5.99899 0C4.18971 0 2.71774 1.44088 2.71774 3.21196V5.14062H2.0625C0.856313 5.14062 -0.125 6.12194 -0.125 7.32812V11.8125C-0.125 13.0187 0.856313 14 2.0625 14H9.9375C11.1437 14 12.125 13.0187 12.125 11.8125C12.125 11.5105 11.8802 11.2656 11.5781 11.2656C11.2761 11.2656 11.0312 11.5105 11.0312 11.8125C11.0312 12.4156 10.5406 12.9062 9.9375 12.9062H2.0625C1.45941 12.9062 0.96875 12.4156 0.96875 11.8125V7.32812C0.96875 6.72503 1.45941 6.23438 2.0625 6.23438H9.9375C10.5406 6.23438 11.0312 6.72503 11.0312 7.32812V9.35156C11.0312 9.6536 11.2761 9.89844 11.5781 9.89844ZM8.18649 5.14062H3.81149V3.21196C3.81149 2.04397 4.7928 1.09375 5.99899 1.09375C7.20518 1.09375 8.18649 2.04397 8.18649 3.21196V5.14062Z" fill="#E9E9E9"/>
</svg>
